<?xml version="1.0" encoding="utf-8"?>
<!-- Generator: Adobe Illustrator 15.1.0, SVG Export Plug-In . SVG Version: 6.00 Build 0)  -->
<!DOCTYPE svg PUBLIC "-//W3C//DTD SVG 1.1//EN" "http://www.w3.org/Graphics/SVG/1.1/DTD/svg11.dtd">
<svg version="1.1" id="Layer_1" xmlns="http://www.w3.org/2000/svg" xmlns:xlink="http://www.w3.org/1999/xlink" x="0px" y="0px"
	 width="463.841px" height="458.076px" viewBox="0 0 463.841 458.076" enable-background="new 0 0 463.841 458.076"
	 xml:space="preserve">
<g>
	<g>
		<circle fill="#7695CD" cx="231.92" cy="70.889" r="70.888"/>
		<circle fill="#7695CD" cx="231.92" cy="387.188" r="70.888"/>
	</g>
	<g>
		<circle fill="#7695CD" cx="392.953" cy="229.038" r="70.888"/>
		<circle fill="#7695CD" cx="70.888" cy="229.038" r="70.888"/>
	</g>
	<circle fill="#FCAF26" cx="231.921" cy="229.038" r="107.692"/>
	<text transform="matrix(1 0 0 1 200.4795 73.1445)" fill="#FFFFFF" font-family="'Roboto-Regular'" font-size="16.5">Relevant</text>
	<text transform="matrix(1 0 0 1 23.1118 233.8599)" fill="#FFFFFF" font-family="'Roboto-Regular'" font-size="16.5">Comparable</text>
	<text transform="matrix(1 0 0 1 363.9692 233.8599)" fill="#FFFFFF" font-family="'Roboto-Regular'" font-size="16.5">Credible</text>
	<text transform="matrix(1 0 0 1 196.4741 210.4443)"><tspan x="0" y="0" font-family="'Roboto-Regular'" font-size="18.5">Decision</tspan><tspan x="9.223" y="24" font-family="'Roboto-Regular'" font-size="18.5">Useful</tspan><tspan x="-12.574" y="48" font-family="'Roboto-Regular'" font-size="18.5">Information</tspan></text>
	<text transform="matrix(1 0 0 1 174.0737 395.9858)" fill="#FFFFFF" font-family="'Roboto-Regular'" font-size="16.5">Understandable</text>
	<g>
		<polygon fill="#FFFFFF" points="231.741,166.668 215.008,150.059 217.474,147.574 231.769,161.764 246.395,147.561 
			248.833,150.072 		"/>
	</g>
	<g>
		<polygon fill="#FFFFFF" points="232.1,292.544 248.833,309.154 246.368,311.638 232.073,297.449 217.446,311.652 215.008,309.141 
					"/>
	</g>
	<g>
		<polygon fill="#FFFFFF" points="295.341,228.859 311.951,212.125 314.435,214.591 300.246,228.886 314.447,243.512 
			311.937,245.951 		"/>
	</g>
	<g>
		<polygon fill="#FFFFFF" points="169.464,229.216 152.854,245.951 150.37,243.484 164.56,229.189 150.356,214.563 152.867,212.125 
					"/>
	</g>
</g>
</svg>
